<?xml version="1.0" encoding="iso-8859-1"?>
<!-- Generator: Adobe Illustrator 19.0.0, SVG Export Plug-In . SVG Version: 6.00 Build 0)  -->
<svg xmlns="http://www.w3.org/2000/svg" xmlns:xlink="http://www.w3.org/1999/xlink" version="1.1" id="Layer_1" x="0px" y="0px" viewBox="0 0 511.999 511.999" style="enable-background:new 0 0 511.999 511.999;" xml:space="preserve">
<path style="fill:#C6C6C6;" d="M234.195,127.871V93.899c0-7.203-5.84-13.042-13.043-13.042h-86.571  c-7.202,0-13.041,5.838-13.041,13.042v33.972H234.195z"/>
<path style="fill:#98A09B;" d="M188.902,80.857H134.58c-7.202,0-13.041,5.838-13.041,13.042v33.972h54.32V93.899  C175.86,86.695,181.699,80.857,188.902,80.857z"/>
<path style="fill:#6B6968;" d="M251.224,124.871h-50.535c-13.458,0-86.93,0-96.18,0c-7.202,0-13.043,5.841-13.043,13.044  c0,4.81,0,334.379,0,341.057h172.799c0-6.344,0-336.268,0-341.057C264.266,130.712,258.425,124.871,251.224,124.871z"/>
<path style="fill:#514E4C;" d="M174.781,137.914c0-7.202,5.84-13.044,13.044-13.044c-3.17,0-79.957,0-83.315,0  c-7.202,0-13.043,5.841-13.043,13.044c0,4.81,0,334.379,0,341.057h83.314C174.781,472.627,174.781,142.703,174.781,137.914z"/>
<path style="fill:#88DCE5;" d="M419.744,478.971c18.586-43.229,29.548-99.376,29.548-156.847  c0-144.932-69.689-262.46-155.681-262.46v419.307L419.744,478.971L419.744,478.971z"/>
<path style="fill:#74C4C4;" d="M335.563,69.316c-13.303-6.261-27.37-9.653-41.952-9.653v419.307h70.283  C392.154,353.983,384.619,156.38,335.563,69.316z"/>
<path style="fill:#DDDDDD;" d="M454.291,490.164c0-7.839-6.353-14.192-14.191-14.192H71.887c-7.837,0-14.191,6.354-14.191,14.192  c0,7.838,6.353,14.19,14.191,14.19H440.1C447.939,504.354,454.291,498.002,454.291,490.164z"/>
<path style="fill:#C6C4C2;" d="M440.1,490.072H71.887c-5.23,0-9.788-2.838-12.25-7.049c-1.227,2.1-1.941,4.534-1.941,7.141  c0,7.838,6.353,14.19,14.191,14.19H440.1c10.938,0,17.768-11.884,12.25-21.332C449.888,487.234,445.329,490.072,440.1,490.072z"/>
<path d="M226.77,164.697h-97.841c-4.143,0-7.5,3.357-7.5,7.5c0,4.143,3.357,7.5,7.5,7.5h97.841c4.143,0,7.5-3.357,7.5-7.5  C234.271,168.054,230.912,164.697,226.77,164.697z"/>
<path d="M226.77,201.271h-97.841c-4.143,0-7.5,3.357-7.5,7.5c0,4.143,3.357,7.5,7.5,7.5h97.841c4.143,0,7.5-3.357,7.5-7.5  C234.271,204.628,230.912,201.271,226.77,201.271z"/>
<path d="M226.77,237.842h-97.841c-4.143,0-7.5,3.357-7.5,7.5c0,4.143,3.357,7.5,7.5,7.5h97.841c4.143,0,7.5-3.357,7.5-7.5  C234.271,241.2,230.912,237.842,226.77,237.842z"/>
<path d="M226.77,274.417h-97.841c-4.143,0-7.5,3.357-7.5,7.5c0,4.143,3.357,7.5,7.5,7.5h97.841c4.143,0,7.5-3.357,7.5-7.5  C234.271,277.774,230.912,274.417,226.77,274.417z"/>
<path d="M226.77,310.99h-97.841c-4.143,0-7.5,3.357-7.5,7.5s3.357,7.5,7.5,7.5h97.841c4.143,0,7.5-3.357,7.5-7.5  S230.912,310.99,226.77,310.99z"/>
<path d="M226.77,347.562h-97.841c-4.143,0-7.5,3.357-7.5,7.5c0,4.143,3.357,7.5,7.5,7.5h97.841c4.143,0,7.5-3.357,7.5-7.5  C234.271,350.919,230.912,347.562,226.77,347.562z"/>
<path d="M226.77,420.709h-97.841c-4.143,0-7.5,3.357-7.5,7.5c0,4.143,3.357,7.5,7.5,7.5h97.841c4.143,0,7.5-3.357,7.5-7.5  C234.271,424.067,230.912,420.709,226.77,420.709z"/>
<path d="M226.77,384.136h-97.841c-4.143,0-7.5,3.357-7.5,7.5s3.357,7.5,7.5,7.5h97.841c4.143,0,7.5-3.357,7.5-7.5  S230.912,384.136,226.77,384.136z"/>
<path d="M440.159,468.608h-9.198c47.038-120.887,29.077-287.546-46.459-371.091c-2.778-3.073-7.521-3.308-10.595-0.533  c-3.072,2.778-3.311,7.521-0.533,10.595c14.23,15.738,26.543,35.106,36.662,57.118h-72.383c-4.143,0-7.5,3.357-7.5,7.5  c0,4.143,3.357,7.5,7.5,7.5h78.795c2.75,6.975,5.287,14.179,7.615,21.573h-86.41c-4.143,0-7.5,3.357-7.5,7.5  c0,4.143,3.357,7.5,7.5,7.5h90.764c1.88,7.045,3.574,14.241,5.073,21.57h-95.836c-4.143,0-7.5,3.357-7.5,7.5  c0,4.143,3.357,7.5,7.5,7.5c0.606,0,97.994,0.022,98.596-0.04c1.171,7.106,2.174,14.313,2.983,21.613h-101.58  c-4.143,0-7.5,3.357-7.5,7.5c0,4.143,3.357,7.5,7.5,7.5h102.97c0.535,7.123,0.885,14.322,1.069,21.571H337.654  c-4.143,0-7.5,3.357-7.5,7.5s3.357,7.5,7.5,7.5h104.158c-0.061,7.242-0.299,14.436-0.709,21.571H337.654c-4.143,0-7.5,3.357-7.5,7.5  c0,4.143,3.357,7.5,7.5,7.5h102.338c-0.674,7.271-1.544,14.463-2.581,21.573h-99.757c-4.143,0-7.5,3.357-7.5,7.5s3.357,7.5,7.5,7.5  h97.305c-1.352,7.308-2.922,14.495-4.66,21.571h-92.645c-4.143,0-7.5,3.357-7.5,7.5c0,4.143,3.357,7.5,7.5,7.5h88.635  c-3.316,11.359-7.141,22.354-11.475,32.898H301.128l0.001-401.105c18.735,1.613,36.87,9.285,54.007,22.865  c3.246,2.573,7.964,2.026,10.537-1.22c2.572-3.246,2.026-7.964-1.22-10.537c-19.895-15.767-41.165-24.521-63.325-26.135V7.5  c0-4.143-3.357-7.5-7.5-7.5s-7.5,3.357-7.5,7.5c0,1.825,0,444.422,0,461.108h-14.354V193.38c0-4.143-3.357-7.5-7.5-7.5  s-7.5,3.357-7.5,7.5v275.229H98.925V137.953c0-3.058,2.488-5.546,5.546-5.546c4.577,0,125.145,0,129.723,0h17.032  c3.058,0,5.546,2.488,5.546,5.546v30.418c0,4.143,3.357,7.5,7.5,7.5s7.5-3.357,7.5-7.5v-30.418c0-11.33-9.218-20.547-20.547-20.547  h-9.532v-23.48c0-11.329-9.218-20.546-20.547-20.546h-86.596c-11.329,0-20.545,9.218-20.545,20.546v23.48h-9.535  c-11.33,0-20.547,9.218-20.547,20.547v330.655H71.84c-11.963,0-21.695,9.733-21.695,21.696c0,11.963,9.733,21.694,21.695,21.694  h40.538c4.143,0,7.5-3.357,7.5-7.5s-3.357-7.5-7.5-7.5H71.84c-3.691,0-6.694-3.003-6.694-6.693c0-3.691,3.003-6.695,6.694-6.695  c36.182,0,357.108,0,368.319,0c3.691,0,6.694,3.004,6.694,6.695c0,3.69-3.003,6.693-6.694,6.693H138.88c-4.143,0-7.5,3.357-7.5,7.5  s3.357,7.5,7.5,7.5h301.279c11.963,0,21.695-9.732,21.695-21.694S452.122,468.608,440.159,468.608z M129.007,93.926  c0-3.058,2.487-5.545,5.544-5.545h86.596c3.058,0,5.546,2.487,5.546,5.545v23.48h-97.687V93.926z"/>
<g>
</g>
<g>
</g>
<g>
</g>
<g>
</g>
<g>
</g>
<g>
</g>
<g>
</g>
<g>
</g>
<g>
</g>
<g>
</g>
<g>
</g>
<g>
</g>
<g>
</g>
<g>
</g>
<g>
</g>
</svg>
